<?xml version="1.0" standalone="no"?>
<!DOCTYPE svg PUBLIC "-//W3C//DTD SVG 20010904//EN"
 "http://www.w3.org/TR/2001/REC-SVG-20010904/DTD/svg10.dtd">
<svg version="1.0" xmlns="http://www.w3.org/2000/svg"
 width="612.000000pt" height="792.000000pt" viewBox="0 0 612.000000 792.000000"
 preserveAspectRatio="xMidYMid meet">

<g transform="translate(0.000000,792.000000) scale(0.100000,-0.100000)"
fill="#000000" stroke="none">
<path d="M2104 7124 c-52 -19 -111 -74 -135 -128 -18 -39 -19 -82 -19 -794 0
-830 -3 -792 63 -860 36 -37 94 -71 129 -74 13 -1 -139 -5 -337 -8 -352 -5
-361 -6 -407 -28 -57 -28 -111 -88 -125 -139 -8 -26 -12 -581 -15 -1769 l-3
-1730 28 -42 c55 -84 158 -132 252 -118 61 10 134 61 162 115 22 42 23 55 23
237 l0 194 29 32 29 33 156 0 156 0 27 -28 28 -27 6 -368 c6 -395 7 -406 61
-464 95 -100 276 -88 354 24 38 54 42 123 43 676 l1 463 25 24 c21 22 33 25
93 25 54 0 75 -4 93 -19 24 -19 24 -21 29 -273 4 -215 8 -258 22 -285 36 -65
106 -98 195 -91 57 5 92 25 127 72 20 26 21 45 26 301 6 353 -12 325 220 325
157 0 168 -1 186 -21 18 -20 19 -52 24 -793 l5 -771 28 -47 c37 -63 102 -102
171 -102 73 -1 102 10 152 56 74 68 74 67 74 648 l0 507 23 21 c22 21 33 22
169 22 202 0 188 24 188 -314 0 -293 4 -312 73 -373 66 -57 145 -67 224 -28
63 32 100 82 113 157 7 37 10 468 8 1279 l-3 1224 -212 705 c-116 388 -217
719 -223 735 -16 42 -77 104 -125 126 -73 34 -136 26 -401 -50 -133 -38 -251
-72 -262 -75 -14 -5 -8 5 19 34 71 75 70 55 67 886 -3 699 -4 741 -22 774 -26
49 -64 88 -111 113 -40 22 -43 22 -750 24 -606 1 -716 0 -751 -13z m1483 -86
c77 -51 73 -6 73 -841 l0 -744 -23 -34 c-12 -18 -38 -44 -57 -56 l-34 -23
-710 2 -711 3 -34 24 c-18 13 -42 42 -52 65 -18 39 -19 81 -19 769 0 791 -2
764 55 817 53 50 51 50 786 47 l685 -2 41 -27z m727 -1692 c20 -15 42 -39 50
-54 26 -50 436 -1444 436 -1481 -1 -49 -30 -111 -69 -144 -17 -14 -62 -35 -99
-46 -544 -161 -1276 -363 -1308 -363 -62 0 -120 37 -149 93 -8 14 -39 113 -69
220 l-56 194 0 646 0 646 558 161 c621 180 636 182 706 128z m-845 -90 c-2 -2
-102 -32 -222 -66 l-217 -63 -36 42 c-40 46 -74 67 -131 80 -25 6 73 9 286 10
178 1 322 -1 320 -3z m-575 -99 c25 -14 48 -39 63 -66 l23 -44 0 -726 c0 -683
-2 -728 -19 -766 -22 -49 -48 -73 -98 -91 -56 -20 -1360 -20 -1416 0 -50 18
-76 42 -98 91 -17 38 -19 83 -19 764 0 715 0 725 21 768 13 28 35 52 62 68
l42 25 700 0 700 0 39 -23z m1820 -2141 c29 -14 61 -35 71 -46 18 -20 18 -21
-11 -57 -48 -59 -56 -61 -117 -30 -61 30 -118 35 -138 11 -23 -28 3 -48 89
-69 103 -27 158 -63 184 -122 32 -73 7 -145 -72 -202 -86 -62 -212 -62 -337 0
-83 40 -93 59 -58 109 51 74 55 75 123 39 71 -37 142 -49 160 -26 27 32 -3 54
-104 77 -102 23 -154 77 -154 163 0 77 49 144 126 173 58 22 173 12 238 -20z
m-3233 -2 c8 -9 35 -76 61 -148 34 -95 49 -125 54 -111 3 11 25 76 48 145 l41
125 73 3 c42 2 79 -2 86 -8 7 -5 33 -71 56 -145 24 -74 47 -132 51 -128 3 5
21 53 39 108 18 55 41 117 52 138 l18 37 80 0 c68 0 79 -3 85 -18 4 -15 -123
-408 -170 -524 -6 -15 -21 -18 -100 -18 -62 0 -96 4 -103 13 -5 6 -27 61 -48
121 l-38 109 -28 -84 c-15 -46 -35 -101 -44 -121 l-17 -38 -94 0 -94 0 -13 31
c-43 103 -169 497 -163 512 9 24 148 25 168 1z m977 -86 l3 -98 99 0 100 0 0
89 c0 64 4 92 14 100 9 8 43 11 93 9 l78 -3 0 -275 0 -275 -78 -3 c-50 -2 -84
1 -93 9 -10 8 -14 38 -14 110 l0 99 -100 0 -99 0 -3 -107 -3 -108 -80 -3 c-66
-2 -82 0 -92 14 -17 23 -19 495 -2 525 9 18 19 19 92 17 l82 -3 3 -97z m680
90 c9 -9 12 -83 12 -269 0 -255 0 -258 -22 -273 -26 -18 -119 -22 -149 -6 -18
10 -19 24 -19 270 0 142 3 265 6 274 5 13 22 16 83 16 47 0 82 -5 89 -12z
m577 -68 l0 -75 -77 -3 -78 -3 -2 -197 -3 -197 -80 0 -80 0 -3 197 -2 197 -78
3 -77 3 -3 64 c-2 35 -1 70 2 78 5 11 49 13 243 11 l238 -3 0 -75z m529 64 c8
-20 8 -88 0 -108 -5 -13 -27 -16 -135 -16 l-129 0 0 -30 0 -30 114 0 c132 0
146 -7 146 -71 0 -76 -5 -79 -140 -79 l-120 0 0 -30 0 -30 119 0 c141 0 151
-5 151 -79 0 -26 -5 -52 -12 -59 -9 -9 -71 -12 -220 -12 -195 0 -208 1 -218
19 -6 12 -10 114 -10 261 0 147 4 249 10 261 10 18 23 19 224 19 186 0 215 -2
220 -16z"/>
<path d="M2169 6967 c-61 -40 -69 -71 -69 -260 0 -144 2 -168 16 -174 9 -3 20
0 25 8 5 8 9 89 9 181 0 162 1 168 24 195 24 28 26 28 162 33 122 4 139 7 142
23 3 15 -9 17 -136 17 -128 0 -142 -2 -173 -23z"/>
<path d="M3200 6970 c0 -19 7 -20 125 -20 132 0 173 -10 191 -47 5 -10 11 -97
14 -193 4 -156 7 -175 23 -178 16 -3 17 11 17 178 0 201 -6 226 -63 260 -28
17 -51 20 -169 20 -131 0 -138 -1 -138 -20z"/>
<path d="M2671 6764 c-21 -26 -21 -35 -21 -584 0 -549 0 -558 21 -584 l20 -26
154 0 154 0 20 26 c21 26 21 35 21 584 0 549 0 558 -21 584 l-20 26 -154 0
-154 0 -20 -26z"/>
<path d="M3537 5893 c-4 -3 -7 -80 -7 -169 0 -105 -4 -172 -12 -189 -20 -45
-54 -55 -193 -55 -118 0 -125 -1 -125 -20 0 -19 7 -20 138 -20 153 0 186 11
217 69 21 41 23 391 2 391 -8 0 -17 -3 -20 -7z"/>
<path d="M2112 5868 c-8 -8 -12 -62 -12 -170 0 -179 11 -223 64 -261 29 -20
42 -22 171 -22 125 0 140 2 143 18 3 15 -7 17 -110 17 -62 0 -129 5 -149 10
-63 18 -69 37 -69 228 0 129 -3 172 -13 181 -10 8 -17 7 -25 -1z"/>
<path d="M4095 5284 c-27 -8 -80 -24 -117 -35 -63 -18 -84 -38 -59 -53 4 -3
64 10 131 30 181 52 189 47 250 -166 22 -80 43 -153 46 -162 6 -19 29 -24 39
-8 7 12 -80 316 -100 346 -37 56 -107 74 -190 48z"/>
<path d="M4054 4890 c-88 -26 -169 -52 -180 -58 -12 -7 -37 -60 -73 -156 -35
-94 -58 -143 -65 -139 -6 4 -62 45 -125 91 -62 46 -119 86 -126 88 -14 6 -365
-90 -398 -108 -13 -7 -17 -18 -15 -41 3 -29 24 -46 278 -219 151 -103 280
-195 287 -205 6 -10 41 -126 77 -258 77 -279 86 -302 121 -311 29 -7 273 57
313 82 47 30 45 45 -34 330 -41 148 -74 273 -74 279 0 6 59 147 130 313 72
167 130 311 130 321 0 26 -21 41 -54 40 -17 0 -103 -22 -192 -49z"/>
<path d="M3153 3748 c-14 -17 75 -329 103 -359 26 -29 67 -49 101 -49 15 0 81
14 146 32 92 26 117 37 117 50 0 24 -18 23 -140 -12 -58 -16 -115 -30 -128
-30 -48 0 -75 46 -121 205 -45 156 -59 186 -78 163z"/>
<path d="M1485 5091 c-69 -32 -75 -53 -75 -260 0 -174 1 -181 20 -181 19 0 20
7 20 175 l0 175 29 32 29 33 139 5 c114 4 138 8 138 20 0 12 -22 15 -130 17
-109 2 -136 0 -170 -16z"/>
<path d="M2128 4905 c-218 -53 -395 -217 -465 -430 -22 -66 -26 -99 -26 -190
0 -94 3 -121 27 -190 53 -154 150 -275 282 -353 106 -62 181 -84 309 -89 132
-6 211 10 321 64 73 35 104 63 104 92 0 22 -221 241 -243 241 -10 0 -44 -7
-75 -16 -175 -51 -352 78 -352 257 0 106 54 193 153 246 35 19 153 23 238 9
l46 -8 101 112 c128 140 130 156 26 209 -117 58 -312 78 -446 46z"/>
<path d="M2858 3810 l-3 -182 -33 -29 c-32 -29 -32 -29 -167 -29 -130 0 -135
-1 -135 -21 0 -20 4 -20 149 -17 149 3 150 3 180 32 48 46 52 67 49 251 -3
150 -5 170 -20 173 -15 3 -17 -14 -20 -178z"/>
</g>
</svg>
